<svg width="31" height="44" viewBox="0 0 31 44" fill="none" xmlns="http://www.w3.org/2000/svg">
<path d="M10.1857 18.6L10.1857 15.4763C10.1857 14.9057 10.2816 14.3391 10.4693 13.8003C12.057 9.24443 18.5001 9.24443 20.0877 13.8003C20.2755 14.3391 20.3714 14.9057 20.3714 15.4763V19.4857" stroke="black"/>
<path d="M9.19957 19.0429H6.42926C5.50013 19.0429 4.69336 19.6827 4.4818 20.5875L0.923181 35.8054C0.368308 38.1782 1.34902 40.6457 3.38139 41.9902C4.33469 42.6209 5.45246 42.9571 6.59549 42.9571H24.4045C25.5475 42.9571 26.6653 42.6209 27.6186 41.9902C29.651 40.6457 30.6317 38.1782 30.0768 35.8054L26.5182 20.5875C26.3066 19.6827 25.4999 19.0429 24.5707 19.0429H21.5532M9.19957 19.0429L10.8836 26.2444C10.9487 26.5227 11.0395 26.7943 11.1548 27.0558C12.7732 30.7251 17.9796 30.7251 19.598 27.0558C19.7133 26.7943 19.8041 26.5227 19.8691 26.2444L21.5532 19.0429M9.19957 19.0429H21.5532" stroke="black" stroke-width="1.2"/>
</svg>
